<svg width="40" height="41" viewBox="0 0 40 41" fill="none" xmlns="http://www.w3.org/2000/svg">
    <path
        d="M27.4944 26.5468H12.5836V20.5356L20 22.4873L27.4944 20.4576V26.5468ZM27.4944 18.0375L20 20.0672L12.5836 18.1156V15.149H16.3309V14.3683C16.3309 13.3275 16.6952 12.4427 17.4238 11.7141C18.1524 10.9854 19.0242 10.6211 20.039 10.6211C21.0539 10.6211 21.9257 10.9854 22.6543 11.7141C23.3829 12.4427 23.7472 13.3275 23.7472 14.3683V15.149H27.4944V18.0375ZM18.6729 14.3683V15.149H21.4052V14.3683C21.4052 14.004 21.2751 13.6788 21.0149 13.3925C20.7546 13.1063 20.4294 12.9631 20.039 12.9631C19.6487 12.9631 19.3234 13.1063 19.0632 13.3925C18.803 13.6788 18.6729 14.004 18.6729 14.3683ZM29.2119 9.37206C26.5576 7.13415 23.487 6.01519 20 6.01519C16.513 6.01519 13.4424 7.13415 10.7881 9.37206L6.65056 5.23452L7.74349 4.45385C11.3346 1.64344 15.4201 0.238235 20 0.238235C24.5799 0.238235 28.6654 1.64344 32.2565 4.45385L33.3494 5.23452L29.2119 9.37206ZM35.7695 7.96686C38.5799 11.5579 39.9851 15.6434 39.9851 20.2234C39.9851 24.8033 38.5799 28.8888 35.7695 32.4799L34.9888 33.5728L30.8513 29.4353C33.0892 26.781 34.2082 23.7104 34.2082 20.2234C34.2082 16.7364 33.0892 13.6657 30.8513 11.0115L34.9888 6.87392L35.7695 7.96686ZM10.7881 31.0747C13.4424 33.3126 16.513 34.4315 20 34.4315C23.487 34.4315 26.5576 33.3126 29.2119 31.0747L33.3494 35.2122L32.2565 35.9929C28.6654 38.8033 24.5799 40.2085 20 40.2085C15.4201 40.2085 11.3346 38.8033 7.74349 35.9929L6.65056 35.2122L10.7881 31.0747ZM9.1487 11.0115C6.91078 13.6657 5.79182 16.7364 5.79182 20.2234C5.79182 23.7104 6.91078 26.781 9.1487 29.4353L5.01115 33.5728L4.23048 32.4799C1.42007 28.8888 0.0148697 24.8033 0.0148697 20.2234C0.0148697 15.6434 1.42007 11.5579 4.23048 7.96686L5.01115 6.87392L9.1487 11.0115Z" />
</svg>