<svg width="40" height="41" viewBox="0 0 40 41" fill="none" xmlns="http://www.w3.org/2000/svg">
    <path
        d="M39.9852 26.9371L36.0037 30.9185L36.7844 35.6025L32.1004 40.2085L25.9331 24.1267L33.6617 16.32L34.3643 20.5356L36.7063 18.1936L38.658 20.1453L34.9108 23.8925L35.4573 27.5617L38.0335 24.9854L39.9852 26.9371ZM23.8253 6.56166L16.0967 14.2903L0.0148926 8.12299L4.62084 3.43898L9.30486 4.21965L13.2863 0.238235L15.2379 2.18991L12.6617 4.76612L16.3309 5.31258L20.0781 1.56537L22.0298 3.51704L19.6878 5.85905L23.8253 6.56166ZM37.8773 2.50217C38.658 3.28284 39.0484 4.24567 39.0484 5.39065C39.0484 6.53563 38.658 7.49846 37.8773 8.27913L17.4238 28.6546L8.13385 31.8553L0.561361 24.2828L1.8885 22.9557L8.91452 25.3758L31.9443 2.34604C32.7249 1.56537 33.6878 1.17504 34.8327 1.17504C35.9777 1.17504 36.9405 1.56537 37.7212 2.34604L37.8773 2.50217ZM19.2194 22.9557L21.3272 20.8479L19.3755 18.8962L17.2677 21.004L19.2194 22.9557ZM23.435 18.7401L25.5428 16.6323L23.513 14.6806L21.4833 16.7884L23.435 18.7401ZM27.5725 14.6025L29.6803 12.4947L27.7286 10.5431L25.6208 12.5728L27.5725 14.6025ZM31.7881 10.3869L33.8959 8.27913L31.9443 6.32745L29.8365 8.43526L31.7881 10.3869Z" />
</svg>