<svg width="40" height="33" viewBox="0 0 40 33" fill="none" xmlns="http://www.w3.org/2000/svg">
    <path
        d="M7.97769 7.40166C7.97769 5.05965 8.58921 3.30314 9.81226 2.13214C11.0353 0.961136 12.8178 0.375633 15.1598 0.375633C19.9479 0.375633 22.342 2.71764 22.342 7.40166C22.342 8.80686 22.2119 10.0689 21.9517 11.1879C21.6914 12.3069 21.3401 13.2176 20.8978 13.9202C20.4554 14.6228 19.987 15.2214 19.4926 15.7158C18.9981 16.2102 18.4907 16.5615 17.9703 16.7697C17.4498 16.9779 16.9814 17.147 16.565 17.2771C16.1487 17.4072 15.8104 17.4723 15.5502 17.4723H15.1598C12.974 17.5243 11.2435 16.6526 9.96839 14.857C8.6933 13.0615 8.02973 10.5764 7.97769 7.40166ZM20.8587 19.502C21.5874 22.0002 22.9926 24.7325 25.0743 27.6991C26.1152 29.2083 27.2862 30.6656 28.5874 32.0708H0.0148621C0.0148621 32.0188 0.0669067 31.4723 0.170996 30.4314C0.275085 29.3905 0.379174 28.3366 0.483264 27.2697C0.587353 26.2028 0.821554 25.1619 1.18587 24.147C1.55018 23.1321 1.99256 22.5206 2.513 22.3124L9.61709 19.424L11.3346 18.0188C11.855 17.6024 12.3494 17.6284 12.8178 18.0968L15.1598 20.4388L17.5019 18.0968C17.9703 17.6284 18.4647 17.6024 18.9851 18.0188L20.7026 19.424L20.8587 19.502ZM31.5539 31.9147C31.4498 32.0188 31.3197 32.0708 31.1636 32.0708C31.0074 32.0708 30.8773 32.0188 30.7732 31.9147C29.316 30.4054 27.9888 28.792 26.7918 27.0745C23.8253 22.8589 22.342 19.2678 22.342 16.3013C22.342 13.8552 23.2007 11.7604 24.9182 10.0169C26.6357 8.2734 28.7175 7.40166 31.1636 7.40166C33.6097 7.40166 35.6914 8.2734 37.4089 10.0169C39.1264 11.7604 39.9851 13.8552 39.9851 16.3013C39.9851 19.2678 38.5019 22.8329 35.5353 26.9965C34.2862 28.766 32.9591 30.4054 31.5539 31.9147ZM27.3383 12.3199C27.3383 12.3199 27.0781 12.5801 26.5576 13.1005C26.0372 13.621 25.7769 14.6359 25.7769 16.1452C25.7769 17.6544 26.2974 18.9295 27.3383 19.9704C28.3792 21.0113 29.6413 21.5318 31.1245 21.5318C32.6078 21.5318 33.8829 21.0113 34.9498 19.9704C36.0167 18.9295 36.5502 17.6544 36.5502 16.1452C36.5502 14.6359 36.0167 13.3608 34.9498 12.3199C33.8829 11.279 32.6078 10.7585 31.1245 10.7585C29.6413 10.7585 28.3792 11.279 27.3383 12.3199Z" />
</svg>