<svg width="42" height="37" viewBox="0 0 42 37" fill="none" xmlns="http://www.w3.org/2000/svg">
    <path
        d="M28.4164 7.91849H39.5799C40.1524 7.91849 40.5688 8.13968 40.829 8.58206C41.0892 9.02444 41.0892 9.47983 40.829 9.94823C40.1004 11.1973 39.1375 12.1861 37.9405 12.9148L29.8996 17.7549C30.1078 17.3906 30.2639 17.0263 30.368 16.662C30.5762 16.0374 30.6803 15.2828 30.6803 14.398C30.6803 13.0449 30.2119 12.1081 29.2751 11.5876C28.5985 11.2233 27.9089 11.1453 27.2063 11.3534C26.5037 11.5616 25.9703 11.978 25.6059 12.6025L24.7472 14.1638C24.7472 14.1638 24.7212 14.1769 24.6691 14.2029C24.6171 14.2289 24.539 14.2809 24.4349 14.359C24.3309 14.4371 24.2007 14.5151 24.0446 14.5932C23.8885 14.6713 23.7063 14.7754 23.4981 14.9055C23.29 15.0356 23.0558 15.1527 22.7955 15.2568C22.5353 15.3609 22.2491 15.478 21.9368 15.6081C21.6245 15.7382 21.3123 15.8553 21 15.9594C20.6877 15.8553 20.3885 15.7512 20.1022 15.6471C19.816 15.543 19.5558 15.4389 19.3216 15.3348C19.0874 15.2308 18.8532 15.1137 18.619 14.9835C18.3848 14.8534 18.1896 14.7363 18.0335 14.6322C17.8773 14.5282 17.7472 14.4371 17.6431 14.359C17.539 14.2809 17.448 14.2289 17.3699 14.2029C17.2918 14.1769 17.2528 14.1638 17.2528 14.1638L16.3941 12.6025C15.9777 11.7698 15.3011 11.3274 14.3643 11.2754C13.5316 11.1713 12.829 11.3925 12.2565 11.9389C11.684 12.4854 11.3717 13.3051 11.3197 14.398C11.3197 15.1267 11.4238 15.8813 11.632 16.662C11.7881 17.0263 11.9703 17.4166 12.1784 17.833L4.05948 12.9148C2.86245 12.1861 1.89963 11.1973 1.171 9.94823C0.91078 9.47983 0.91078 9.02444 1.171 8.58206C1.43123 8.13968 1.84758 7.91849 2.42007 7.91849H13.5056C14.1822 7.91849 14.8067 8.03559 15.3792 8.26979C15.9517 8.50399 16.4721 8.82927 16.9405 9.24562C17.4089 9.66198 17.7993 10.1564 18.1115 10.7289L18.658 11.978V10.2605C18.658 8.95938 18.2937 7.73633 17.5651 6.59135C17.0967 5.91477 16.8625 5.16012 16.8625 4.32741C16.8625 3.23447 17.2528 2.28466 18.0335 1.47797C18.8141 0.671276 19.7639 0.267929 20.8829 0.267929C22.0019 0.267929 22.9647 0.671276 23.7714 1.47797C24.5781 2.28466 24.9814 3.23447 24.9814 4.32741C24.9814 5.16012 24.7212 5.94079 24.2007 6.66942C23.4201 7.8144 23.0297 9.08949 23.0297 10.4947V12.5244L23.8885 10.7289C24.3048 9.84414 24.9294 9.15455 25.7621 8.66012C26.5948 8.1657 27.4796 7.91849 28.4164 7.91849ZM21 25.0932C20.4796 24.9371 19.881 24.7549 19.2045 24.5467C19.881 24.2345 20.4796 23.9742 21 23.7661C21.7286 24.0783 22.3271 24.3386 22.7955 24.5467C22.0669 24.7549 21.4684 24.9371 21 25.0932ZM22.2491 31.4166C22.3011 31.4166 22.3792 31.4166 22.4833 31.4166C22.6394 31.4166 22.7435 31.4166 22.7955 31.4166C22.9517 31.4687 23.0297 31.4947 23.0297 31.4947V33.9928C23.0297 34.6174 22.8216 35.1378 22.4052 35.5542C21.9888 35.9705 21.4684 36.1787 20.8439 36.1787C20.4796 36.1787 20.1283 36.0746 19.79 35.8664C19.4517 35.6583 19.1784 35.398 18.9703 35.0858C18.7621 34.7735 18.658 34.4092 18.658 33.9928V31.4947C18.7621 31.4947 18.8662 31.4817 18.9703 31.4557C19.0743 31.4296 19.1524 31.4166 19.2045 31.4166C19.2565 31.4166 19.3606 31.4166 19.5167 31.4166C19.6729 31.4166 19.777 31.4166 19.829 31.4166C19.9851 31.4166 20.3755 31.4166 21 31.4166C21.6245 31.4166 22.0409 31.4166 22.2491 31.4166ZM14.3643 30.1676C14.3643 30.1676 14.3903 30.1155 14.4424 30.0114C15.119 30.2716 16.1338 30.5058 17.487 30.714C15.9256 31.1824 15.2491 32.3795 15.4572 34.3051L15.5353 34.7735C15.171 34.5133 14.8067 34.0449 14.4424 33.3683C14.0781 32.6917 13.948 31.9631 14.052 31.1824C14.1041 30.8702 14.2082 30.5319 14.3643 30.1676ZM29.119 22.2047C29.6915 23.0895 29.9387 23.9482 29.8606 24.7809C29.7825 25.6137 29.6004 26.3032 29.3141 26.8497C29.0279 27.3962 28.7026 27.8256 28.3383 28.1378C28.1301 28.294 27.948 28.4241 27.7918 28.5282C27.7398 28.5282 27.7138 28.5021 27.7138 28.4501C26.3606 27.5653 24.5651 26.7586 22.3271 26.03C22.4312 26.03 22.5874 26.004 22.7955 25.9519C23.0037 25.8999 23.1599 25.8479 23.2639 25.7958C23.9405 25.6397 24.4349 25.5096 24.7472 25.4055C25.2156 25.2493 25.4758 25.1192 25.5279 25.0151C25.7881 24.4947 24.2788 23.5319 21 22.1267C20.948 22.1787 19.2305 21.346 15.8476 19.6285C14.2342 18.5876 13.2193 17.4427 12.803 16.1936C12.5948 15.569 12.5167 14.9705 12.5688 14.398V13.7735C12.6208 13.3051 12.829 12.9018 13.1933 12.5635C13.5576 12.2252 13.987 12.0821 14.4814 12.1341C14.9758 12.1861 15.3792 12.3943 15.6914 12.7586C16.0037 13.1229 16.1338 13.5393 16.0818 14.0077V14.0858C16.1338 14.346 16.2119 14.5802 16.316 14.7884C16.5242 15.0486 16.7584 15.2828 17.0186 15.491C17.4349 15.8553 17.9554 16.1676 18.5799 16.4278C18.7361 16.5319 18.8922 16.6099 19.0483 16.662C19.5167 16.8702 20.1673 17.1304 21 17.4427C22.0929 17.0263 22.8996 16.688 23.4201 16.4278C24.0446 16.1676 24.5651 15.8553 24.9814 15.491C25.2937 15.2828 25.5279 15.0486 25.684 14.7884C25.7361 14.6843 25.7881 14.5672 25.8401 14.4371C25.8922 14.307 25.9182 14.2029 25.9182 14.1248C25.9182 14.0467 25.9182 14.0077 25.9182 14.0077C25.8662 13.5393 25.9963 13.1229 26.3085 12.7586C26.6208 12.3943 27.0242 12.1861 27.5186 12.1341C28.013 12.0821 28.4424 12.2252 28.8067 12.5635C29.171 12.9018 29.3792 13.3051 29.4312 13.7735C29.4312 13.9296 29.4572 14.1378 29.5093 14.398C29.5613 15.8553 28.9888 17.1824 27.7918 18.3795C27.3234 18.8479 26.803 19.2642 26.2305 19.6285C27.5316 20.4092 28.4944 21.2679 29.119 22.2047ZM26.777 28.9966C26.881 29.0486 26.9721 29.1137 27.0502 29.1917C27.1283 29.2698 27.2714 29.4389 27.4796 29.6992C27.6877 29.9594 27.8439 30.2456 27.948 30.5579C28.052 30.8702 28.0781 31.2865 28.026 31.807C27.974 32.3274 27.8178 32.8739 27.5576 33.4464C27.5056 33.6025 27.4145 33.7716 27.2844 33.9538C27.1543 34.136 27.0502 34.2661 26.9721 34.3441C26.8941 34.4222 26.816 34.5003 26.7379 34.5783C26.6599 34.6564 26.5948 34.6954 26.5428 34.6954L26.4647 34.7735C26.5167 34.6694 26.5428 34.5133 26.5428 34.3051C26.5948 33.8887 26.6208 33.4984 26.6208 33.1341C26.5688 32.6137 26.4126 32.1453 26.1524 31.7289C25.684 31.0003 24.487 30.5319 22.5613 30.3237C22.197 30.2716 21.6896 30.2066 21.039 30.1285C20.3885 30.0505 19.881 29.9854 19.5167 29.9334C18.1115 29.7772 16.9405 29.569 16.0037 29.3088C15.3271 29.1006 14.7807 28.8664 14.3643 28.6062C14.1041 28.4501 13.8959 28.294 13.7398 28.1378C13.5316 27.9817 13.3364 27.7865 13.1543 27.5523C12.9721 27.3181 12.803 27.0709 12.6468 26.8107C12.4907 26.5505 12.3736 26.2772 12.2955 25.991C12.2175 25.7047 12.1784 25.4315 12.1784 25.1713C12.1784 24.1824 12.4387 23.1936 12.9591 22.2047C13.2193 21.6843 13.7658 21.1118 14.5985 20.4873C15.0149 20.6954 16.6803 21.4501 19.5948 22.7512C18.1375 23.4278 17.1487 24.0263 16.6283 24.5467C16.4721 24.7029 16.4201 24.859 16.4721 25.0151C16.5762 25.1192 16.8364 25.2493 17.2528 25.4055C17.3048 25.4055 17.6301 25.4966 18.2286 25.6787C18.8271 25.8609 19.5037 26.0821 20.2584 26.3423C21.013 26.6025 21.8197 26.8757 22.6784 27.162C23.5372 27.4482 24.3439 27.7605 25.0985 28.0988C25.8532 28.4371 26.4126 28.7363 26.777 28.9966Z" />
</svg>