<svg width="23" height="20" viewBox="0 0 23 20" fill="none" xmlns="http://www.w3.org/2000/svg">
<path d="M19.6894 11.153C20.6012 11.153 21.3732 11.4766 22.0056 12.1236C22.6379 12.7707 22.9541 13.5354 22.9541 14.4177V18.0354C22.9541 18.5648 22.7629 19.0207 22.3806 19.403C21.9982 19.7854 21.5424 19.9766 21.0129 19.9766H18.1012C18.1894 19.7707 18.2335 19.5501 18.2335 19.3148V12.7413C18.2335 12.1824 18.1306 11.653 17.9247 11.153H19.6894ZM5.08647 12.7413V19.3148C5.08647 19.5501 5.13059 19.7707 5.21882 19.9766H2.30706C1.77765 19.9766 1.32177 19.7854 0.939412 19.403C0.557059 19.0207 0.365883 18.5648 0.365883 18.0354V14.4177C0.365883 13.5354 0.682059 12.7707 1.31441 12.1236C1.94677 11.4766 2.71882 11.153 3.63059 11.153H5.39529C5.18941 11.653 5.08647 12.1824 5.08647 12.7413ZM13.6453 9.47656C14.5571 9.47656 15.3291 9.79274 15.9615 10.4251C16.5938 11.0574 16.91 11.8295 16.91 12.7413V19.3148C16.91 19.4913 16.8512 19.6457 16.7335 19.778C16.6159 19.9104 16.4541 19.9766 16.2482 19.9766H7.07177C6.86588 19.9766 6.70412 19.9104 6.58647 19.778C6.46882 19.6457 6.41 19.4913 6.41 19.3148V12.7413C6.41 11.8295 6.72618 11.0574 7.35853 10.4251C7.99088 9.79274 8.76294 9.47656 9.67471 9.47656H13.6453ZM8.88059 1.97656C8.88059 1.97656 9.07177 1.78539 9.45412 1.40303C9.83647 1.02068 10.5718 0.829504 11.66 0.829504C12.7482 0.829504 13.6747 1.21186 14.4394 1.97656C15.2041 2.74127 15.5865 3.66774 15.5865 4.75597C15.5865 5.46186 15.4026 6.12362 15.035 6.74127C14.6674 7.35892 14.1747 7.8295 13.5571 8.15303C12.9688 8.50597 12.3365 8.68245 11.66 8.68245C10.9835 8.68245 10.3512 8.50597 9.76294 8.15303C9.1453 7.8295 8.65265 7.35892 8.285 6.74127C7.91735 6.12362 7.73353 5.46186 7.73353 4.75597C7.73353 3.66774 8.11588 2.74127 8.88059 1.97656ZM2.68206 5.35156C2.68206 5.35156 2.82544 5.20818 3.11221 4.92142C3.39897 4.63465 3.94677 4.49127 4.75559 4.49127C5.56441 4.49127 6.25559 4.77803 6.82912 5.35156C7.40265 5.92509 7.68941 6.60892 7.68941 7.40303C7.68941 7.90303 7.58647 8.35892 7.38059 8.77068C7.05706 9.38833 6.57177 9.8295 5.92471 10.0942C5.57177 10.2707 5.18941 10.3589 4.77765 10.3589C4.24824 10.3589 3.75559 10.2266 3.29971 9.96186C2.84382 9.69715 2.48353 9.33686 2.21882 8.88097C1.95412 8.42509 1.82177 7.93245 1.82177 7.40303C1.82177 6.60892 2.10853 5.92509 2.68206 5.35156ZM16.4909 5.35156C16.4909 5.35156 16.6343 5.20818 16.921 4.92142C17.2078 4.63465 17.7556 4.49127 18.5644 4.49127C19.3732 4.49127 20.0644 4.77803 20.6379 5.35156C21.2115 5.92509 21.4982 6.61627 21.4982 7.42509C21.4982 8.23392 21.2115 8.92509 20.6379 9.49862C20.0644 10.0722 19.3659 10.3589 18.5424 10.3589C18.1306 10.3589 17.7482 10.2707 17.3953 10.0942C16.7482 9.8295 16.2629 9.38833 15.9394 8.77068C15.7335 8.35892 15.6306 7.90303 15.6306 7.40303C15.6306 6.60892 15.9174 5.92509 16.4909 5.35156Z" fill="white"/>
</svg>
