<svg width="34" height="41" viewBox="0 0 34 41" fill="none" xmlns="http://www.w3.org/2000/svg">
    <path
        d="M12.316 11.5579C12.316 11.5579 11.9907 11.2327 11.3402 10.5821C10.6896 9.93154 10.3643 8.69548 10.3643 6.87392C10.3643 5.05236 11.0149 3.49102 12.316 2.18991C13.6171 0.888794 15.1785 0.238235 17 0.238235C18.8216 0.238235 20.3829 0.888794 21.684 2.18991C22.9852 3.49102 23.6357 5.05236 23.6357 6.87392C23.6357 8.69548 22.9852 10.2568 21.684 11.5579C20.3829 12.8591 18.8216 13.5096 17 13.5096C15.1785 13.5096 13.6171 12.8591 12.316 11.5579ZM21.8402 14.4464C23.4536 15.0189 24.8848 15.8776 26.1339 17.0226L17 20.4576L7.8662 17.0226C9.11527 15.8776 10.5465 15.0189 12.1599 14.4464C13.6171 15.3832 15.2305 15.8516 17 15.8516C18.7695 15.8516 20.3829 15.3832 21.8402 14.4464ZM31.0521 24.439C31.7807 24.439 32.4182 24.7122 32.9647 25.2587C33.5112 25.8052 33.7844 26.4427 33.7844 27.1713C33.7844 27.8999 33.5112 28.5375 32.9647 29.084C32.4182 29.6304 31.7807 29.9037 31.0521 29.9037H30.2714C29.4907 29.9037 29.1004 29.5133 29.1004 28.7327V25.61C29.1004 24.8293 29.4907 24.439 30.2714 24.439H31.0521ZM3.33831 19.5208C3.33831 19.1044 3.50746 18.7791 3.84575 18.5449C4.18404 18.3107 4.53534 18.2717 4.89965 18.4278L15.829 22.4873V40.2085L4.11898 35.8367C3.59854 35.6286 3.33831 35.2643 3.33831 34.7438V32.2457H3.72865C4.7175 32.2457 5.55021 31.9074 6.22679 31.2308C6.90337 30.5542 7.24166 29.7215 7.24166 28.7327V25.61C7.24166 24.6211 6.90337 23.7884 6.22679 23.1118C5.55021 22.4353 4.7175 22.097 3.72865 22.097H3.33831V19.5208ZM26.7584 28.7327C26.7584 29.7215 27.0967 30.5542 27.7733 31.2308C28.4498 31.9074 29.2826 32.2457 30.2714 32.2457H30.6617V34.7438C30.6617 35.2643 30.4015 35.6286 29.8811 35.8367L18.171 40.2085V22.4873L29.1004 18.4278C29.4647 18.2717 29.816 18.3107 30.1543 18.5449C30.4926 18.7791 30.6617 19.1044 30.6617 19.5208V22.097H30.2714C29.2826 22.097 28.4498 22.4353 27.7733 23.1118C27.0967 23.7884 26.7584 24.6211 26.7584 25.61V28.7327ZM4.89965 28.7327C4.89965 29.5133 4.50932 29.9037 3.72865 29.9037H2.94798C2.21935 29.9037 1.58181 29.6304 1.03534 29.084C0.488871 28.5375 0.215637 27.8999 0.215637 27.1713C0.215637 26.4427 0.488871 25.8052 1.03534 25.2587C1.58181 24.7122 2.21935 24.439 2.94798 24.439H3.72865C4.50932 24.439 4.89965 24.8293 4.89965 25.61V28.7327Z" />
</svg>