<svg width="40" height="41" viewBox="0 0 40 41" fill="none" xmlns="http://www.w3.org/2000/svg">
    <path
        d="M38.5799 4.45369C38.8922 4.45369 39.1394 4.55778 39.3216 4.76596C39.5037 4.97414 39.5948 5.20834 39.5948 5.46856V7.96671C39.5948 8.22693 39.5037 8.46113 39.3216 8.66931C39.1394 8.87749 38.8922 9.0076 38.5799 9.05964L34.8327 9.29384V10.2306C34.8327 10.7511 34.5725 11.0113 34.052 11.0113H31.7881L32.4907 9.99644C33.0632 9.11169 33.2584 8.13585 33.0762 7.06894C32.894 6.00202 32.3606 5.1563 31.4758 4.53176C30.8513 4.1154 30.2007 3.90723 29.5242 3.90723V3.20462C29.5242 2.68418 29.7844 2.42395 30.3048 2.42395H34.052C34.5725 2.42395 34.8327 2.68418 34.8327 3.20462V4.14143L38.5799 4.45369ZM23.6691 8.31801C23.6691 8.31801 23.4089 8.46763 22.8885 8.76689C22.368 9.06615 21.5353 9.05964 20.3903 8.74737C19.2453 8.43511 18.3736 7.75853 17.7751 6.71763C17.1766 5.67674 17.0334 4.58381 17.3457 3.43882C17.658 2.29384 18.3216 1.4221 19.3364 0.823582C20.3513 0.225067 21.4442 0.0819473 22.6152 0.394215C23.7862 0.706482 24.671 1.38306 25.2695 2.42395C25.868 3.46485 26.0111 4.55778 25.6989 5.70276C25.3866 6.84774 24.71 7.71949 23.6691 8.31801ZM28.8606 5.8589C28.8606 5.8589 28.9972 5.83287 29.2704 5.78083C29.5437 5.72879 29.9015 5.8589 30.3439 6.17117C30.7862 6.48343 31.0595 6.89979 31.1636 7.42023C31.2676 7.94068 31.1636 8.43511 30.8513 8.90351L26.4015 15.3831C26.0372 15.9556 25.5167 16.2418 24.8401 16.2418C24.7881 16.2418 24.7621 16.2418 24.7621 16.2418L17.3457 16.0857L23.1227 17.7251L21.171 24.9072L23.8253 25.2195C24.3457 25.3236 24.7881 25.5578 25.1524 25.9221C25.5167 26.2864 25.7509 26.7288 25.855 27.2492L27.4163 37.476C27.4684 37.7362 27.4814 37.9964 27.4554 38.2567C27.4294 38.5169 27.3513 38.7511 27.2212 38.9593C27.0911 39.1674 26.9479 39.3496 26.7918 39.5057C26.6357 39.6619 26.4405 39.805 26.2063 39.9351C25.9721 40.0652 25.7249 40.1563 25.4647 40.2083C24.8401 40.3124 24.2676 40.1693 23.7472 39.779C23.2268 39.3886 22.9145 38.8552 22.8104 38.1786L21.4833 29.6693L14.6914 28.6544L16.9554 37.2418C17.1636 38.0225 17.0204 38.7121 16.526 39.3106C16.0316 39.9091 15.4201 40.2083 14.6914 40.2083L4.93308 40.1303C4.2565 40.1303 3.69702 39.9091 3.25464 39.4667C2.81226 39.0243 2.59107 38.4779 2.59107 37.8273C2.59107 37.1767 2.81226 36.6173 3.25464 36.1489C3.69702 35.6805 4.2565 35.4463 4.93308 35.4463H11.6468C10.1896 29.8254 9.43494 26.989 9.38289 26.937C7.97769 27.5615 6.54646 27.6396 5.08921 27.1712C3.26765 26.6507 1.94051 25.4407 1.1078 23.5411C0.275084 21.6414 0.170995 19.6507 0.79553 17.5689C3.29367 18.5578 5.4275 18.5838 7.19702 17.647C8.60222 16.9184 9.69516 15.6953 10.4758 13.9779C10.684 13.5095 10.8401 13.015 10.9442 12.4946C11.7769 12.5987 12.5186 12.4686 13.1691 12.1043C13.8197 11.7399 14.2491 11.2195 14.4572 10.5429C14.7175 9.7102 14.6004 8.90351 14.1059 8.12284C13.6115 7.34217 12.8959 6.80871 11.9591 6.52247C11.0223 6.23622 10.1245 6.26225 9.26579 6.60053C8.40705 6.93882 7.84757 7.52433 7.58735 8.35704C7.48326 8.7734 7.47025 9.21577 7.54832 9.68418C7.62639 10.1526 7.83456 10.595 8.17285 11.0113C8.51114 11.4277 8.91449 11.766 9.38289 12.0262C9.2788 12.5466 9.12267 13.015 8.91449 13.4314C8.28995 14.7845 7.48326 15.7214 6.49441 16.2418C5.14125 16.9184 3.44981 16.8663 1.42007 16.0857C2.66914 13.7437 4.46468 12.3645 6.80668 11.9481C5.55761 10.595 5.16728 9.16373 5.63568 7.65444C5.99999 6.45741 6.84572 5.61169 8.17285 5.11726C9.49999 4.62284 10.9182 4.60983 12.4275 5.07823C13.6766 5.49459 14.6914 6.15815 15.4721 7.06894C16.2528 7.97972 16.6431 8.95555 16.6431 9.99644C16.6952 9.99644 18.2305 10.4128 21.2491 11.2455L17.4238 12.1823L23.7472 12.2604L27.6505 6.71763C27.9108 6.24923 28.3141 5.96299 28.8606 5.8589ZM12.7007 8.90351C12.7007 8.90351 12.7723 8.99459 12.9154 9.17674C13.0585 9.3589 13.065 9.63213 12.9349 9.99644C12.8048 10.3608 12.5186 10.621 12.0762 10.7771C11.6338 10.9332 11.1524 10.9332 10.632 10.7771C10.1115 10.621 9.70817 10.3477 9.42192 9.95741C9.13568 9.56708 9.0446 9.18975 9.14869 8.82544C9.25278 8.46113 9.53902 8.2009 10.0074 8.04477C10.4758 7.88864 10.9703 7.88864 11.4907 8.04477C12.0111 8.25295 12.4145 8.5392 12.7007 8.90351Z" />
</svg>